<mxfile host="65bd71144e">
    <diagram id="qMt8aB2BfHqaMM3ubLC-" name="Page-1">
        <mxGraphModel dx="2706" dy="2239" grid="1" gridSize="10" guides="1" tooltips="1" connect="1" arrows="1" fold="1" page="1" pageScale="1" pageWidth="850" pageHeight="1100" math="0" shadow="0">
            <root>
                <mxCell id="0"/>
                <mxCell id="1" parent="0"/>
                <mxCell id="2" value="" style="whiteSpace=wrap;html=1;fillColor=#2A2333;strokeColor=none;" parent="1" vertex="1">
                    <mxGeometry x="-640" y="-160" width="1280" height="940" as="geometry"/>
                </mxCell>
                <mxCell id="3" value="" style="whiteSpace=wrap;html=1;strokeColor=none;fillColor=#110e14;" parent="1" vertex="1">
                    <mxGeometry x="-275" y="-140" width="550" height="520" as="geometry"/>
                </mxCell>
                <mxCell id="6" value="" style="whiteSpace=wrap;html=1;strokeColor=none;fillColor=#110e14;" parent="1" vertex="1">
                    <mxGeometry x="310" y="-140" width="310" height="520" as="geometry"/>
                </mxCell>
                <mxCell id="7" value="" style="whiteSpace=wrap;html=1;strokeColor=none;fillColor=#110e14;" parent="1" vertex="1">
                    <mxGeometry x="-275" y="420" width="550" height="300" as="geometry"/>
                </mxCell>
                <mxCell id="28" style="edgeStyle=none;html=1;exitX=0.5;exitY=1;exitDx=0;exitDy=0;strokeWidth=3;strokeColor=#FF6666;" parent="1" source="8" target="26" edge="1">
                    <mxGeometry relative="1" as="geometry"/>
                </mxCell>
                <mxCell id="29" style="edgeStyle=none;html=1;exitX=1;exitY=0.5;exitDx=0;exitDy=0;entryX=0.5;entryY=0;entryDx=0;entryDy=0;strokeColor=#FF6666;strokeWidth=3;" parent="1" source="8" target="12" edge="1">
                    <mxGeometry relative="1" as="geometry">
                        <Array as="points">
                            <mxPoint x="175" y="50"/>
                        </Array>
                    </mxGeometry>
                </mxCell>
                <mxCell id="30" style="edgeStyle=none;html=1;exitX=0;exitY=0.5;exitDx=0;exitDy=0;entryX=0.5;entryY=0;entryDx=0;entryDy=0;strokeColor=#FF6666;strokeWidth=3;" parent="1" source="8" target="11" edge="1">
                    <mxGeometry relative="1" as="geometry">
                        <Array as="points">
                            <mxPoint x="-175" y="50"/>
                        </Array>
                    </mxGeometry>
                </mxCell>
                <mxCell id="8" value="&lt;font style=&quot;font-size: 17px;&quot;&gt;&lt;b&gt;Ordinateur&lt;/b&gt;&lt;/font&gt;" style="whiteSpace=wrap;html=1;fillColor=#f5f5f5;fontColor=#333333;strokeColor=none;" parent="1" vertex="1">
                    <mxGeometry x="-80" y="10" width="160" height="80" as="geometry"/>
                </mxCell>
                <mxCell id="31" style="edgeStyle=none;html=1;exitX=1;exitY=0.5;exitDx=0;exitDy=0;entryX=0.5;entryY=0;entryDx=0;entryDy=0;strokeColor=#FF6666;strokeWidth=3;" parent="1" source="9" target="8" edge="1">
                    <mxGeometry relative="1" as="geometry">
                        <Array as="points">
                            <mxPoint y="-70"/>
                        </Array>
                    </mxGeometry>
                </mxCell>
                <mxCell id="9" value="&lt;font style=&quot;font-size: 17px;&quot;&gt;&lt;b&gt;AC&lt;/b&gt;&lt;/font&gt;" style="whiteSpace=wrap;html=1;fillColor=#f5f5f5;fontColor=#333333;strokeColor=none;" parent="1" vertex="1">
                    <mxGeometry x="-240" y="-100" width="70" height="60" as="geometry"/>
                </mxCell>
                <mxCell id="32" style="edgeStyle=none;html=1;exitX=0;exitY=0.5;exitDx=0;exitDy=0;strokeColor=#FF6666;strokeWidth=3;" parent="1" source="10" edge="1">
                    <mxGeometry relative="1" as="geometry">
                        <mxPoint y="10" as="targetPoint"/>
                        <Array as="points">
                            <mxPoint y="-70"/>
                        </Array>
                    </mxGeometry>
                </mxCell>
                <mxCell id="10" value="&lt;font style=&quot;font-size: 17px;&quot;&gt;&lt;b&gt;LAN&lt;/b&gt;&lt;/font&gt;" style="whiteSpace=wrap;html=1;fillColor=#f5f5f5;fontColor=#333333;strokeColor=none;" parent="1" vertex="1">
                    <mxGeometry x="170" y="-100" width="70" height="60" as="geometry"/>
                </mxCell>
                <mxCell id="11" value="&lt;font style=&quot;font-size: 17px;&quot;&gt;&lt;b&gt;Cable HDMI&lt;/b&gt;&lt;/font&gt;" style="whiteSpace=wrap;html=1;fillColor=#f5f5f5;fontColor=#333333;strokeColor=none;" parent="1" vertex="1">
                    <mxGeometry x="-240" y="160" width="130" height="70" as="geometry"/>
                </mxCell>
                <mxCell id="33" style="edgeStyle=none;html=1;exitX=1;exitY=0.5;exitDx=0;exitDy=0;entryX=0;entryY=0.5;entryDx=0;entryDy=0;strokeColor=#FF6666;strokeWidth=3;" parent="1" source="12" target="15" edge="1">
                    <mxGeometry relative="1" as="geometry">
                        <Array as="points">
                            <mxPoint x="290" y="195"/>
                            <mxPoint x="290" y="35"/>
                        </Array>
                    </mxGeometry>
                </mxCell>
                <mxCell id="12" value="&lt;font style=&quot;font-size: 17px;&quot;&gt;&lt;b&gt;Cable HDMI&lt;/b&gt;&lt;/font&gt;" style="whiteSpace=wrap;html=1;fillColor=#f5f5f5;fontColor=#333333;strokeColor=none;" parent="1" vertex="1">
                    <mxGeometry x="110" y="160" width="130" height="70" as="geometry"/>
                </mxCell>
                <mxCell id="13" value="&lt;font style=&quot;font-size: 17px;&quot;&gt;&lt;b&gt;Cable USB&lt;/b&gt;&lt;/font&gt;" style="whiteSpace=wrap;html=1;fillColor=#f5f5f5;fontColor=#333333;strokeColor=none;" parent="1" vertex="1">
                    <mxGeometry x="-65" y="160" width="130" height="70" as="geometry"/>
                </mxCell>
                <mxCell id="14" value="&lt;font style=&quot;font-size: 17px;&quot;&gt;&lt;b&gt;Adapteur&lt;/b&gt;&lt;/font&gt;" style="whiteSpace=wrap;html=1;fillColor=#f5f5f5;fontColor=#333333;strokeColor=none;" parent="1" vertex="1">
                    <mxGeometry x="-65" y="275" width="130" height="70" as="geometry"/>
                </mxCell>
                <mxCell id="34" style="edgeStyle=none;html=1;exitX=0.5;exitY=1;exitDx=0;exitDy=0;entryX=0.5;entryY=0;entryDx=0;entryDy=0;strokeColor=#FF6666;strokeWidth=3;" parent="1" source="15" target="16" edge="1">
                    <mxGeometry relative="1" as="geometry">
                        <Array as="points">
                            <mxPoint x="465" y="120"/>
                            <mxPoint x="390" y="120"/>
                        </Array>
                    </mxGeometry>
                </mxCell>
                <mxCell id="35" style="edgeStyle=none;html=1;exitX=0.5;exitY=1;exitDx=0;exitDy=0;entryX=0.5;entryY=0;entryDx=0;entryDy=0;strokeColor=#FF6666;strokeWidth=3;" parent="1" source="15" target="18" edge="1">
                    <mxGeometry relative="1" as="geometry">
                        <Array as="points">
                            <mxPoint x="465" y="120"/>
                            <mxPoint x="540" y="120"/>
                        </Array>
                    </mxGeometry>
                </mxCell>
                <mxCell id="15" value="&lt;font style=&quot;font-size: 17px;&quot;&gt;&lt;b&gt;2x Speakers&lt;/b&gt;&lt;/font&gt;" style="whiteSpace=wrap;html=1;fillColor=#f5f5f5;fontColor=#333333;strokeColor=none;" parent="1" vertex="1">
                    <mxGeometry x="400" width="130" height="70" as="geometry"/>
                </mxCell>
                <mxCell id="16" value="&lt;div&gt;&lt;font style=&quot;font-size: 17px;&quot;&gt;&lt;b&gt;Left Channel&lt;/b&gt;&lt;/font&gt;&lt;/div&gt;" style="whiteSpace=wrap;html=1;fillColor=#f5f5f5;fontColor=#333333;strokeColor=none;" parent="1" vertex="1">
                    <mxGeometry x="330" y="205" width="120" height="70" as="geometry"/>
                </mxCell>
                <mxCell id="18" value="&lt;div&gt;&lt;font style=&quot;font-size: 17px;&quot;&gt;&lt;b&gt;Right Channel&lt;/b&gt;&lt;/font&gt;&lt;/div&gt;" style="whiteSpace=wrap;html=1;fillColor=#f5f5f5;fontColor=#333333;strokeColor=none;" parent="1" vertex="1">
                    <mxGeometry x="480" y="205" width="120" height="70" as="geometry"/>
                </mxCell>
                <mxCell id="26" value="&lt;font style=&quot;font-size: 17px;&quot;&gt;&lt;b&gt;Lidar&lt;/b&gt;&lt;/font&gt;" style="whiteSpace=wrap;html=1;fillColor=#f5f5f5;fontColor=#333333;strokeColor=none;" parent="1" vertex="1">
                    <mxGeometry x="-65" y="490" width="130" height="70" as="geometry"/>
                </mxCell>
                <mxCell id="37" value="" style="whiteSpace=wrap;html=1;strokeColor=none;fillColor=#110E14;" parent="1" vertex="1">
                    <mxGeometry x="-620" y="-140" width="310" height="520" as="geometry"/>
                </mxCell>
                <mxCell id="36" style="edgeStyle=none;html=1;exitX=0;exitY=0.5;exitDx=0;exitDy=0;entryX=1;entryY=0.5;entryDx=0;entryDy=0;strokeColor=#FF6666;strokeWidth=3;" parent="1" source="11" target="24" edge="1">
                    <mxGeometry relative="1" as="geometry">
                        <Array as="points">
                            <mxPoint x="-290" y="195"/>
                            <mxPoint x="-290" y="55"/>
                        </Array>
                    </mxGeometry>
                </mxCell>
                <mxCell id="24" value="&lt;div&gt;&lt;font style=&quot;font-size: 17px;&quot;&gt;&lt;b&gt;Projecteur VidÃ©o&lt;/b&gt;&lt;/font&gt;&lt;/div&gt;" style="whiteSpace=wrap;html=1;fillColor=#f5f5f5;fontColor=#333333;strokeColor=none;" parent="1" vertex="1">
                    <mxGeometry x="-530" y="20" width="130" height="70" as="geometry"/>
                </mxCell>
                <mxCell id="25" value="&lt;font style=&quot;font-size: 17px;&quot;&gt;&lt;b&gt;Plafond&lt;/b&gt;&lt;/font&gt;" style="whiteSpace=wrap;html=1;fillColor=#B3B3B3;fontColor=#333333;strokeColor=none;" parent="1" vertex="1">
                    <mxGeometry x="-530" y="-120" width="130" height="40" as="geometry"/>
                </mxCell>
                <mxCell id="38" value="&lt;font style=&quot;font-size: 17px;&quot;&gt;&lt;b&gt;Plafond&lt;/b&gt;&lt;/font&gt;" style="whiteSpace=wrap;html=1;fillColor=#B3B3B3;fontColor=#333333;strokeColor=none;" parent="1" vertex="1">
                    <mxGeometry x="400" y="-120" width="130" height="40" as="geometry"/>
                </mxCell>
                <mxCell id="39" value="&lt;div&gt;&lt;span style=&quot;font-size: 17px;&quot;&gt;&lt;b&gt;DerriÃ¨re rideau&lt;/b&gt;&lt;/span&gt;&lt;/div&gt;" style="whiteSpace=wrap;html=1;fillColor=#B3B3B3;fontColor=#333333;strokeColor=none;" parent="1" vertex="1">
                    <mxGeometry x="-65" y="-120" width="130" height="40" as="geometry"/>
                </mxCell>
                <mxCell id="40" value="&lt;span style=&quot;font-size: 17px;&quot;&gt;&lt;b&gt;Sur le mur&lt;/b&gt;&lt;/span&gt;" style="whiteSpace=wrap;html=1;fillColor=#B3B3B3;fontColor=#333333;strokeColor=none;" parent="1" vertex="1">
                    <mxGeometry x="-65" y="660" width="130" height="40" as="geometry"/>
                </mxCell>
            </root>
        </mxGraphModel>
    </diagram>
</mxfile>